<svg xmlns="http://www.w3.org/2000/svg" viewBox="0 0 553.33 183.83">
  <path d="M16.03 177.23v-2.83h-6.6v-6.6H6.6v6.6H0v2.83h6.6v6.6h2.83v-6.6zm268.65-33.56v-2.83h-6.6v-6.6h-2.83v6.6h-6.6v2.83h6.6v6.6h2.83v-6.6zm0-134.24V6.6h-6.6V0h-2.83v6.6h-6.6v2.83h6.6v6.6h2.83v-6.6zm0 67.12v-2.83h-6.6v-6.6h-2.83v6.6h-6.6v2.83h6.6v6.6h2.83v-6.6zm0 100.68v-2.83h-6.6v-6.6h-2.83v6.6h-6.6v2.83h6.6v6.6h2.83v-6.6zm0-67.12v-2.83h-6.6v-6.6h-2.83v6.6h-6.6v2.83h6.6v6.6h2.83v-6.6zM83.2 143.67v-2.83h-6.6v-6.6h-2.83v6.6h-6.6v2.83h6.6v6.6h2.84v-6.6zm0 33.56v-2.83h-6.6v-6.6h-2.83v6.6h-6.6v2.83h6.6v6.6h2.84v-6.6zm0-134.24v-2.83h-6.6v-6.6h-2.83v6.6h-6.6v2.83h6.6v6.6h2.84v-6.6zm0 67.12v-2.83h-6.6v-6.6h-2.83v6.6h-6.6v2.83h6.6v6.6h2.84v-6.6zm268.65 33.56v-2.83h-6.6v-6.6h-2.83v6.6h-6.6v2.83h6.6v6.6h2.84v-6.6zm0-67.12v-2.83h-6.6v-6.6h-2.83v6.6h-6.6v2.83h6.6v6.6h2.84v-6.6zm0 100.68v-2.83h-6.6v-6.6h-2.83v6.6h-6.6v2.83h6.6v6.6h2.84v-6.6zm0-67.12v-2.83h-6.6v-6.6h-2.83v6.6h-6.6v2.83h6.6v6.6h2.84v-6.6zm-201.48 33.56v-2.83h-6.6v-6.6h-2.84v6.6h-6.6v2.83h6.6v6.6h2.84v-6.6zm0-67.12v-2.83h-6.6v-6.6h-2.84v6.6h-6.6v2.83h6.6v6.6h2.84v-6.6zm0 100.68v-2.83h-6.6v-6.6h-2.84v6.6h-6.6v2.83h6.6v6.6h2.84v-6.6zm0-134.24v-2.83h-6.6v-6.6h-2.84v6.6h-6.6v2.83h6.6v6.6h2.84v-6.6zm0 67.12v-2.83h-6.6v-6.6h-2.84v6.6h-6.6v2.83h6.6v6.6h2.84v-6.6zM419 143.67v-2.83h-6.6v-6.6h-2.84v6.6h-6.6v2.83h6.6v6.6h2.84v-6.6zm0-67.12v-2.83h-6.6v-6.6h-2.84v6.6h-6.6v2.83h6.6v6.6h2.84v-6.6zm0 100.68v-2.83h-6.6v-6.6h-2.84v6.6h-6.6v2.83h6.6v6.6h2.84v-6.6zm0-67.12v-2.83h-6.6v-6.6h-2.84v6.6h-6.6v2.83h6.6v6.6h2.84v-6.6zm-201.5 33.56v-2.83h-6.59v-6.6h-2.83v6.6h-6.6v2.83h6.6v6.6h2.83v-6.6zm0-67.12v-2.83h-6.59v-6.6h-2.83v6.6h-6.6v2.83h6.6v6.6h2.83v-6.6zm0 100.68v-2.83h-6.59v-6.6h-2.83v6.6h-6.6v2.83h6.6v6.6h2.83v-6.6zm0-134.24v-2.83h-6.59v-6.6h-2.83v6.6h-6.6v2.83h6.6v6.6h2.83v-6.6zm0 67.12v-2.83h-6.59v-6.6h-2.83v6.6h-6.6v2.83h6.6v6.6h2.83v-6.6zm268.66 33.56v-2.83h-6.6v-6.6h-2.83v6.6h-6.6v2.83h6.6v6.6h2.83v-6.6zm0-67.12v-2.83h-6.6v-6.6h-2.83v6.6h-6.6v2.83h6.6v6.6h2.83v-6.6zm0 100.68v-2.83h-6.6v-6.6h-2.83v6.6h-6.6v2.83h6.6v6.6h2.83v-6.6zm0-134.24v-2.83h-6.6v-6.6h-2.83v6.6h-6.6v2.83h6.6v6.6h2.83v-6.6zm0 67.12v-2.83h-6.6v-6.6h-2.83v6.6h-6.6v2.83h6.6v6.6h2.83v-6.6zm60.56 67.12h6.6v-2.83h-6.6v-6.6h-2.83v6.6h-6.6v2.83h6.6v6.6h2.83zm6.6-67.12v-2.83h-6.6v-6.6h-2.83v6.6h-6.6v2.83h6.6v6.6h2.83v-6.6zM49.61 177.23v-2.83h-6.6v-6.6h-2.83v6.6h-6.6v2.83h6.6v6.6h2.84v-6.6zm0-67.12v-2.83h-6.6v-6.6h-2.83v6.6h-6.6v2.83h6.6v6.6h2.84v-6.6zm268.65 33.56v-2.83h-6.6v-6.6h-2.83v6.6h-6.6v2.83h6.6v6.6h2.83v-6.6zm0 33.56v-2.83h-6.6v-6.6h-2.83v6.6h-6.6v2.83h6.6v6.6h2.83v-6.6zm0-134.24v-2.83h-6.6v-6.6h-2.83v6.6h-6.6v2.83h6.6v6.6h2.83v-6.6zm0 67.12v-2.83h-6.6v-6.6h-2.83v6.6h-6.6v2.83h6.6v6.6h2.83v-6.6zm-201.48 33.56v-2.83h-6.6v-6.6h-2.84v6.6h-6.6v2.83h6.6v6.6h2.84v-6.6zm0-134.24V6.6h-6.6V0h-2.84v6.6h-6.6v2.83h6.6v6.6h2.84v-6.6zm0 167.8v-2.83h-6.6v-6.6h-2.84v6.6h-6.6v2.83h6.6v6.6h2.84v-6.6zm0-134.24v-2.83h-6.6v-6.6h-2.84v6.6h-6.6v2.83h6.6v6.6h2.84v-6.6zm0 67.12v-2.83h-6.6v-6.6h-2.84v6.6h-6.6v2.83h6.6v6.6h2.84v-6.6zm268.64 33.56v-2.83h-6.6v-6.6H376v6.6h-6.6v2.83h6.6v6.6h2.84v-6.6zm0-67.12v-2.83h-6.6v-6.6H376v6.6h-6.6v2.83h6.6v6.6h2.84v-6.6zm0 100.68v-2.83h-6.6v-6.6H376v6.6h-6.6v2.83h6.6v6.6h2.84v-6.6zm0-134.24v-2.83h-6.6v-6.6H376v6.6h-6.6v2.83h6.6v6.6h2.84v-6.6zm0 67.12v-2.83h-6.6v-6.6H376v6.6h-6.6v2.83h6.6v6.6h2.84v-6.6zM183.95 76.55v-2.83h-6.6v-6.6h-2.84v6.6h-6.6v2.83h6.6v6.6h2.84v-6.6zm0 100.68v-2.83h-6.6v-6.6h-2.84v6.6h-6.6v2.83h6.6v6.6h2.84v-6.6zm0-67.12v-2.83h-6.6v-6.6h-2.84v6.6h-6.6v2.83h6.6v6.6h2.84v-6.6zm268.65 33.56v-2.83h-6.6v-6.6h-2.83v6.6h-6.6v2.83h6.6v6.6h2.83v-6.6zm0 33.56v-2.83h-6.6v-6.6h-2.83v6.6h-6.6v2.83h6.6v6.6h2.83v-6.6zM251.1 143.67v-2.83h-6.6v-6.6h-2.83v6.6h-6.6v2.83h6.6v6.6h2.83v-6.6zm0-134.24V6.6h-6.6V0h-2.83v6.6h-6.6v2.83h6.6v6.6h2.83v-6.6zm0 67.12v-2.83h-6.6v-6.6h-2.83v6.6h-6.6v2.83h6.6v6.6h2.83v-6.6zm0 100.68v-2.83h-6.6v-6.6h-2.83v6.6h-6.6v2.83h6.6v6.6h2.83v-6.6zm0-134.24v-2.83h-6.6v-6.6h-2.83v6.6h-6.6v2.83h6.6v6.6h2.83v-6.6zm0 67.12v-2.83h-6.6v-6.6h-2.83v6.6h-6.6v2.83h6.6v6.6h2.83v-6.6zm268.65 33.56v-2.83h-6.6v-6.6h-2.83v6.6h-6.6v2.83h6.6v6.6h2.83v-6.6zm0 33.56v-2.83h-6.6v-6.6h-2.83v6.6h-6.6v2.83h6.6v6.6h2.83v-6.6z" fill="#e5e5e5"/>
</svg>
